<?xml version="1.0" encoding="utf-8"?>
<!-- Generator: Adobe Illustrator 26.3.1, SVG Export Plug-In . SVG Version: 6.00 Build 0)  -->
<svg version="1.1" id="Layer_1" xmlns="http://www.w3.org/2000/svg" xmlns:xlink="http://www.w3.org/1999/xlink" x="0px" y="0px"
	 viewBox="0 0 64 64" style="enable-background:new 0 0 64 64;" xml:space="preserve">
<style type="text/css">
	.st0{fill-rule:evenodd;clip-rule:evenodd;fill:#FFFFFF;}
</style>
<g transform="matrix(1,0,0,1,-259,-185)">
	<g>
		<path class="st0" d="M307.1,228.8c4.3-3.5,8.8-7.2,8.9-7.2l0,0c1.6-1.1,2.6-2.9,2.6-4.8c0-1.9-1-3.8-2.6-4.8l0,0
			c-0.2-0.1-4.7-3.8-8.9-7.2v-13c0-1.8-0.7-3.6-2-4.9c-1.3-1.3-3-2-4.9-2c-7.5,0-22.3,0-29.8,0c-3.8,0-6.9,3.1-6.9,6.9V242
			c0,3.8,3.1,6.9,6.9,6.9c7.5,0,22.3,0,29.8,0c1.8,0,3.6-0.7,4.9-2c1.3-1.3,2-3,2-4.9V228.8z M302.5,201.1v-9.3
			c0-0.6-0.2-1.2-0.7-1.6c-0.4-0.4-1-0.7-1.6-0.7h-29.8c-1.3,0-2.3,1-2.3,2.3V242c0,1.3,1,2.3,2.3,2.3h29.8c0.6,0,1.2-0.2,1.6-0.7
			c0.4-0.4,0.7-1,0.7-1.6v-9.5c-1.5,1.2-2.6,2.1-2.6,2.1c-1.8,1.1-4,1.2-5.9,0.2c-1.8-1-3-2.9-3-5V226h-11.5c-1.2,0-2.4-0.5-3.2-1.3
			c-0.9-0.9-1.3-2-1.3-3.2c0-2.5,0-6.6,0-9.2l0,0c0-1.2,0.5-2.4,1.3-3.2c0.9-0.9,2-1.3,3.2-1.3h11.5v-3.9c0-2.1,1.2-4,3-5
			c1.8-1,4.1-0.9,5.9,0.2C300,199,301,199.9,302.5,201.1z"/>
	</g>
</g>
</svg>
