<svg xmlns="http://www.w3.org/2000/svg" width="16" height="16">
<path fill="#FFFFFF" d="M3.4,2.2h7.8c0.3,0,0.5,0.1,0.7,0.3c0.2,0.2,0.3,0.4,0.3,0.7v1.4c0,0.3-0.1,0.5-0.3,0.7
	c-0.2,0.2-0.4,0.3-0.7,0.3H3.4c-0.3,0-0.5-0.1-0.7-0.3C2.6,5,2.5,4.8,2.5,4.5V3.1c0-0.3,0.1-0.5,0.3-0.7C2.9,2.3,3.2,2.2,3.4,2.2z
	 M4,12.4h1.2c0.1,0,0.3-0.1,0.3-0.3c0-0.1-0.1-0.3-0.3-0.3H4c-0.1,0-0.3,0.1-0.3,0.3C3.7,12.3,3.8,12.4,4,12.4z M6.2,12.4h4.4
	c0.1,0,0.3-0.1,0.3-0.3c0-0.1-0.1-0.3-0.3-0.3H6.2C6.1,11.9,6,12,6,12.2C6,12.3,6.1,12.4,6.2,12.4z M4,4.1h1.2
	c0.1,0,0.3-0.1,0.3-0.3c0-0.1-0.1-0.3-0.3-0.3H4c-0.1,0-0.3,0.1-0.3,0.3C3.7,4,3.8,4.1,4,4.1z M6.2,4.1h4.4c0.1,0,0.3-0.1,0.3-0.3
	c0-0.1-0.1-0.3-0.3-0.3H6.2C6.1,3.6,6,3.7,6,3.8C6,4,6.1,4.1,6.2,4.1z M5.4,8.3h1.2c0.1,0,0.3-0.1,0.3-0.3c0-0.1-0.1-0.3-0.3-0.3
	H5.4C5.2,7.7,5.1,7.9,5.1,8C5.1,8.1,5.2,8.3,5.4,8.3z M7.6,8.3h4.4c0.1,0,0.3-0.1,0.3-0.3c0-0.1-0.1-0.3-0.3-0.3H7.6
	C7.5,7.7,7.4,7.9,7.4,8C7.4,8.1,7.5,8.3,7.6,8.3z M13.8,11c0.1-0.1,0.3-0.1,0.4,0c0.1,0.1,0.1,0.3,0,0.4l-0.6,0.6H15
	c0.1,0,0.2,0,0.3-0.1c0.1-0.1,0.1-0.2,0.1-0.3V8.7c0-0.1,0-0.2-0.1-0.3c-0.1-0.1-0.2-0.1-0.3-0.1h-0.7c-0.1,0-0.3-0.1-0.3-0.3
	c0-0.1,0.1-0.3,0.3-0.3H15c0.3,0,0.5,0.1,0.7,0.3C15.9,8.2,16,8.4,16,8.7v2.8c0,0.3-0.1,0.5-0.3,0.7s-0.4,0.3-0.7,0.3h-1.5l0.6,0.6
	c0.1,0.1,0.1,0.3,0,0.4c-0.1,0.1-0.3,0.1-0.4,0l-1-1c-0.1-0.1-0.1-0.3,0-0.4L13.8,11L13.8,11z M1.9,7.2c-0.1-0.1-0.1-0.3,0-0.4
	c0.1-0.1,0.3-0.1,0.4,0l1,1c0.1,0.1,0.1,0.3,0,0.4l-1,1C2.2,9.3,2,9.3,1.9,9.2c-0.1-0.1-0.1-0.3,0-0.4l0.6-0.6H1
	C0.7,8.3,0.5,8.1,0.3,8C0.1,7.8,0,7.6,0,7.3V4.5C0,4.3,0.1,4,0.3,3.8C0.5,3.7,0.7,3.6,1,3.6h0.7c0.1,0,0.3,0.1,0.3,0.3
	c0,0.1-0.1,0.3-0.3,0.3H1c-0.1,0-0.2,0-0.3,0.1C0.6,4.3,0.5,4.4,0.5,4.5v2.8c0,0.1,0,0.2,0.1,0.3C0.8,7.7,0.9,7.7,1,7.7h1.5L1.9,7.2
	L1.9,7.2z M3.4,10.5h7.8c0.3,0,0.5,0.1,0.7,0.3c0.2,0.2,0.3,0.4,0.3,0.7v1.4c0,0.3-0.1,0.5-0.3,0.7c-0.2,0.2-0.4,0.3-0.7,0.3H3.4
	c-0.3,0-0.5-0.1-0.7-0.3c-0.2-0.2-0.3-0.4-0.3-0.7v-1.4c0-0.3,0.1-0.5,0.3-0.7C2.9,10.6,3.2,10.5,3.4,10.5z M4.8,6.3h7.8
	c0.3,0,0.5,0.1,0.7,0.3c0.2,0.2,0.3,0.4,0.3,0.7v1.4c0,0.3-0.1,0.5-0.3,0.7c-0.2,0.2-0.4,0.3-0.7,0.3H4.8c-0.3,0-0.5-0.1-0.7-0.3
	C4,9.2,3.9,9,3.9,8.7V7.3C3.9,7,4,6.8,4.1,6.6C4.3,6.4,4.5,6.3,4.8,6.3z"/>
</svg>
