<?xml version="1.0" encoding="utf-8"?>
<!-- Generator: Adobe Illustrator 26.3.1, SVG Export Plug-In . SVG Version: 6.00 Build 0)  -->
<svg version="1.1" id="Layer_1" xmlns="http://www.w3.org/2000/svg" xmlns:xlink="http://www.w3.org/1999/xlink" x="0px" y="0px"
	 viewBox="0 0 64 64" style="enable-background:new 0 0 64 64;" xml:space="preserve">
<style type="text/css">
	.st0{fill-rule:evenodd;clip-rule:evenodd;fill:#FFFFFF;}
</style>
<path class="st0" d="M33,9.7c0.2,0,0.4,0,0.5,0.1c7,1.1,13-1.6,18.1-8.2c0.3-0.4,0.8-0.4,1.2-0.1c0.1,0.1,0.2,0.3,0.3,0.4l2.3,7.2
	l0,0l0,0l2.2,7.1l0,0l2.2,7.1l0,0l2.4,7.7l0,0l0,0l0,0l0,0c0,0.1,0,0.3,0,0.4v0l0,0l0,0c0,0.1-0.1,0.2-0.1,0.2l0,0l0,0l0,0l0,0l0,0
	l0,0c0,0,0,0,0,0.1c-6.6,8.5-14.7,11-24.2,7.6c-3.4-1-6.5-1.4-9.3-1.1c-0.5,0-1,0.1-1.4,0.2c0,0-0.1,0-0.1,0c-2,0.4-3.9,1.1-5.6,2.2
	l6.6,20.8c0.1,0.4-0.1,0.9-0.6,1.1l-3.8,1.2c-0.4,0.1-0.9-0.1-1.1-0.6l-17-54C5.5,9.2,5.3,9.1,5.1,9c-1-0.5-1.9-1.5-2.3-2.7v0
	C2.5,5.1,2.6,3.9,3.2,2.8c0.5-1,1.5-1.9,2.7-2.3s2.5-0.2,3.5,0.3c1,0.5,1.9,1.5,2.3,2.7s0.2,2.5-0.3,3.5c-0.1,0.1-0.2,0.3-0.3,0.4
	l0.8,2.4c2.3-1.4,4.8-2.2,7.5-2.4c3.1-0.3,6.4,0.1,10,1.2c0,0,0,0,0,0C30.6,9.1,31.8,9.5,33,9.7L33,9.7L33,9.7z M21.3,22.2l-1.7-5.5
	c-1.7,0.4-3.4,1.1-4.9,2l1.7,5.5C17.9,23.3,19.5,22.7,21.3,22.2L21.3,22.2z M25.9,37L24,31c-1.7,0.4-3.4,1.1-4.9,2l1.9,6
	C22.5,38.1,24.2,37.5,25.9,37L25.9,37z M26.2,14.7l-1.7-5.4C22.7,9,21,9,19.4,9.1c-0.2,0-0.4,0-0.5,0.1l1.8,5.6
	c0.3,0,0.6-0.1,0.9-0.1C23,14.5,24.6,14.5,26.2,14.7C26.2,14.7,26.2,14.7,26.2,14.7z M30.7,29L29,23.6c-1.8-0.3-3.4-0.3-5-0.2
	c-0.2,0-0.4,0-0.5,0.1l1.7,5.5c0.3,0,0.6-0.1,0.9-0.1C27.6,28.8,29.1,28.8,30.7,29L30.7,29L30.7,29z M36.4,23.8l-1.7-5.3
	c-1.2-0.2-2.4-0.6-3.7-1.1c-0.8-0.2-1.6-0.5-2.4-0.6l1.7,5.3c1.1,0.2,2.3,0.5,3.5,0.9c0,0,0,0,0,0C34.7,23.4,35.6,23.6,36.4,23.8
	L36.4,23.8L36.4,23.8z M41.1,38.6l-1.8-5.8c-1.2-0.2-2.4-0.6-3.7-1.1c-0.8-0.2-1.6-0.5-2.4-0.6L35,37c1.1,0.2,2.3,0.5,3.5,0.9
	c0,0,0,0,0,0C39.4,38.2,40.2,38.4,41.1,38.6C41.1,38.6,41.1,38.6,41.1,38.6z M41.6,17l-1.8-5.6c-1.8,0.3-3.6,0.4-5.5,0.2l1.7,5.4
	C37.9,17.3,39.8,17.3,41.6,17C41.6,17,41.6,17,41.6,17z M46.1,31.3l-1.7-5.5c-1.8,0.3-3.6,0.4-5.5,0.2l1.7,5.4
	C42.5,31.6,44.3,31.6,46.1,31.3L46.1,31.3L46.1,31.3z M50.3,21.6l-1.7-5.5c-1.6,1-3.2,1.7-4.9,2.2l1.7,5.5c0.2,0,0.3-0.1,0.5-0.1
	C47.5,23.2,48.9,22.5,50.3,21.6L50.3,21.6z M55,36.4l-1.9-6c-1.4,0.9-2.9,1.6-4.4,2.1c-0.2,0-0.3,0.1-0.5,0.1l1.9,6
	C51.8,38.1,53.4,37.4,55,36.4L55,36.4L55,36.4z M52.3,22.2l1.7,5.4c1.4-1.1,2.8-2.5,4.1-4.2l-1.6-5.2C55.1,19.8,53.7,21.1,52.3,22.2
	C52.3,22.2,52.3,22.2,52.3,22.2z M47.8,7.9l1.7,5.5c1.4-1.1,2.8-2.5,4.1-4.2l-1.7-5.3C50.6,5.5,49.2,6.8,47.8,7.9z"/>
</svg>
