<?xml version="1.0" encoding="utf-8"?>
<!-- Generator: Adobe Illustrator 26.3.1, SVG Export Plug-In . SVG Version: 6.00 Build 0)  -->
<svg version="1.1" id="Layer_1" xmlns="http://www.w3.org/2000/svg" xmlns:xlink="http://www.w3.org/1999/xlink" x="0px" y="0px"
	 viewBox="0 0 16 16" style="enable-background:new 0 0 16 16;" xml:space="preserve">
<style type="text/css">
	.st0{fill:#FFFFFF;}
</style>
<path class="st0" d="M12.7,3.2C12,2.9,11.2,2.9,9.8,2.9H6.2c-1.5,0-2.2,0-2.9,0.3C2.7,3.5,2.3,3.9,1.9,4.5C1.6,5.1,1.6,5.8,1.6,7.1
	v1.8c0,1.3,0,2,0.3,2.6c0.3,0.6,0.8,1,1.4,1.3c0.7,0.3,1.4,0.3,2.9,0.3h3.5c1.5,0,2.2,0,2.9-0.3c0.6-0.3,1.1-0.7,1.4-1.3
	c0.3-0.6,0.3-1.3,0.3-2.6V7.1c0-1.3,0-2-0.3-2.6C13.7,3.9,13.3,3.5,12.7,3.2z M6.2,11.7c-1.2,0-1.8,0-2.1-0.2
	c-0.3-0.1-0.5-0.4-0.7-0.6c-0.2-0.3-0.2-0.9-0.2-2V7.1c0-1.1,0-1.7,0.2-2c0.2-0.3,0.4-0.5,0.7-0.6c0.3-0.2,1-0.2,2.1-0.2l1.6,2.9
	C7.9,7.5,8,7.8,8,8c0,0.2-0.1,0.5-0.2,0.7C7.8,8.7,6.2,11.7,6.2,11.7z M12.8,8.9c0,1.1,0,1.7-0.2,2c-0.2,0.3-0.4,0.5-0.7,0.6
	c-0.3,0.2-1,0.2-2.2,0.2H8l1.3-2.3C9.5,8.9,9.6,8.5,9.6,8c0-0.5-0.1-0.9-0.4-1.4L8,4.4h1.8c1.2,0,1.8,0,2.2,0.2
	c0.3,0.1,0.5,0.4,0.7,0.6c0.2,0.3,0.2,0.9,0.2,2C12.8,7.1,12.8,8.9,12.8,8.9z"/>
</svg>
