<?xml version="1.0" encoding="utf-8"?>
<!-- Generator: Adobe Illustrator 26.3.1, SVG Export Plug-In . SVG Version: 6.00 Build 0)  -->
<svg version="1.1" id="Layer_1" xmlns="http://www.w3.org/2000/svg" xmlns:xlink="http://www.w3.org/1999/xlink" x="0px" y="0px"
	 viewBox="0 0 16 16" style="enable-background:new 0 0 16 16;" xml:space="preserve">
<style type="text/css">
	.st0{fill:#FFFFFF;}
</style>
<g>
	<path class="st0" d="M3.7,16h8.4c0.3,0,0.5-0.2,0.5-0.5l0.4-10.8l-10.3,0l0.4,10.8C3.2,15.8,3.4,16,3.7,16L3.7,16z M10.3,6.7
		c0-0.2,0.1-0.3,0.3-0.3h0c0.2,0,0.3,0.1,0.3,0.3L10.7,14c0,0.2-0.1,0.3-0.3,0.3h0c-0.2,0-0.3-0.1-0.3-0.3L10.3,6.7z M7.6,6.7
		c0-0.2,0.1-0.3,0.3-0.3c0.2,0,0.3,0.1,0.3,0.3V14c0,0.2-0.1,0.3-0.3,0.3c-0.2,0-0.3-0.1-0.3-0.3V6.7z M5.2,6.4
		c0.2,0,0.3,0.1,0.3,0.3L5.6,14c0,0.2-0.1,0.3-0.3,0.3h0C5.2,14.3,5,14.2,5,14L4.9,6.7C4.9,6.5,5,6.4,5.2,6.4L5.2,6.4z"/>
	<path class="st0" d="M1.8,3v0.8c0,0.2,0.1,0.3,0.3,0.3h11.5c0.2,0,0.3-0.1,0.3-0.3V3c0-0.2-0.1-0.3-0.3-0.3H2.1
		C2,2.7,1.8,2.8,1.8,3L1.8,3z"/>
	<path class="st0" d="M11.1,2V1.1c0-0.6-0.5-1.1-1.1-1.1H5.9C5.2,0,4.7,0.5,4.7,1.1V2h0.6V1.1c0-0.3,0.2-0.5,0.5-0.5h4.1
		c0.3,0,0.5,0.2,0.5,0.5V2H11.1L11.1,2z"/>
</g>
</svg>
