<?xml version="1.0" encoding="utf-8"?>
<!-- Generator: Adobe Illustrator 26.3.1, SVG Export Plug-In . SVG Version: 6.00 Build 0)  -->
<svg version="1.1" id="Layer_1" xmlns="http://www.w3.org/2000/svg" xmlns:xlink="http://www.w3.org/1999/xlink" x="0px" y="0px"
	 viewBox="0 0 16 16" style="enable-background:new 0 0 16 16;" xml:space="preserve">
<style type="text/css">
	.st0{fill:#FFFFFF;}
</style>
<g>
	<path class="st0" d="M3.9,12.3c0.1,0.7,0.7,1.3,1.4,1.3h5.4c0.7,0,1.3-0.5,1.4-1.3l0.6-6.1h0.7V4.9h-2.8v-1c0-0.8-0.6-1.4-1.4-1.4
		H6.8C6,2.4,5.4,3,5.4,3.8v1H2.6v1.4h0.7L3.9,12.3z M10.7,12.2H5.3L4.7,6.3h6.6L10.7,12.2z M6.8,3.8h2.4v1H6.8V3.8z"/>
	<rect x="6.1" y="7.3" class="st0" width="1.4" height="3.8"/>
	<rect x="8.5" y="7.3" class="st0" width="1.4" height="3.8"/>
</g>
</svg>
